<svg width="30" height="30" viewBox="0 0 30 30" fill="none" xmlns="http://www.w3.org/2000/svg">
<g clip-path="url(#clip0_41_2)">
<path d="M16.8751 5.225C16.5301 5.225 16.2501 4.945 16.2501 4.6V2.5C16.2501 1.81125 15.6889 1.25 15.0001 1.25C14.3114 1.25 13.7501 1.81125 13.7501 2.5V4.6C13.7501 4.945 13.4701 5.225 13.1251 5.225C12.7801 5.225 12.5001 4.94625 12.5001 4.6V2.5C12.5001 1.12125 13.6214 0 15.0001 0C16.3789 0 17.5001 1.12125 17.5001 2.5V4.6C17.5001 4.94625 17.2201 5.225 16.8751 5.225Z" fill="#ABABAB"/>
<path d="M15.0001 30C12.5876 30 10.6251 28.0375 10.6251 25.625C10.6251 25.28 10.9051 25 11.2501 25C11.5951 25 11.8751 25.28 11.8751 25.625C11.8751 27.3475 13.2776 28.75 15.0001 28.75C16.7226 28.75 18.1251 27.3475 18.1251 25.625C18.1251 25.28 18.4051 25 18.7501 25C19.0951 25 19.3751 25.28 19.3751 25.625C19.3751 28.0375 17.4126 30 15.0001 30Z" fill="#ABABAB"/>
<path d="M25.6249 26.25H4.37488C3.34113 26.25 2.49988 25.4088 2.49988 24.375C2.49988 23.8262 2.73863 23.3075 3.15613 22.95C5.12613 21.285 6.24988 18.8625 6.24988 16.2975V12.5C6.24988 7.675 10.1749 3.75 14.9999 3.75C19.8249 3.75 23.7499 7.675 23.7499 12.5V16.2975C23.7499 18.8638 24.8736 21.285 26.8336 22.9413C27.2611 23.3075 27.4999 23.8262 27.4999 24.375C27.4999 25.4088 26.6599 26.25 25.6249 26.25ZM14.9999 5C10.8636 5 7.49988 8.36375 7.49988 12.5V16.2975C7.49988 19.2325 6.21488 22.0013 3.97363 23.8963C3.82988 24.0188 3.74988 24.1925 3.74988 24.375C3.74988 24.72 4.02988 25 4.37488 25H25.6249C25.9699 25 26.2499 24.72 26.2499 24.375C26.2499 24.1925 26.1699 24.0188 26.0311 23.9C23.7861 22.0013 22.4999 19.2312 22.4999 16.2975V12.5C22.4999 8.36375 19.1361 5 14.9999 5Z" fill="#ABABAB"/>
</g>
<defs>
<clipPath id="clip0_41_2">
<rect width="30" height="30" fill="white"/>
</clipPath>
</defs>
</svg>
